HIERARCHY
ROOT pelvis
{
	OFFSET 0.000000 0.000000 0.000000
	CHANNELS 6 Xposition Yposition Zposition Xrotation Yrotation Zrotation
	JOINT l_hip
	{
		OFFSET 0.195211 -0.245059 -0.022011
		CHANNELS 3 Xrotation Yrotation Zrotation
		JOINT l_knee
		{
			OFFSET 0.083896 -0.996307 -0.018298
			CHANNELS 3 Xrotation Yrotation Zrotation
			JOINT l_ankle
			{
				OFFSET -0.031606 -1.048662 -0.119000
				CHANNELS 3 Xrotation Yrotation Zrotation
				JOINT l_foot
				{
					OFFSET 0.063841 -0.149483 0.312863
					CHANNELS 3 Xrotation Yrotation Zrotation
					End Site
					{
						OFFSET 0.000000 0.000000 0.000000
					}
				}
			}
		}
	}
	JOINT r_hip
	{
		OFFSET -0.188785 -0.243354 -0.013119
		CHANNELS 3 Xrotation Yrotation Zrotation
		JOINT r_knee
		{
			OFFSET -0.098896 -1.013926 -0.025127
			CHANNELS 3 Xrotation Yrotation Zrotation
			JOINT r_ankle
			{
				OFFSET 0.038376 -1.049454 -0.114596
				CHANNELS 3 Xrotation Yrotation Zrotation
				JOINT r_foot
				{
					OFFSET -0.060300 -0.126955 0.322518
					CHANNELS 3 Xrotation Yrotation Zrotation
					End Site
					{
						OFFSET 0.000000 0.000000 0.000000
					}
				}
			}
		}
	}
	JOINT spine1
	{
		OFFSET -0.006861 0.282462 -0.060688
		CHANNELS 3 Xrotation Yrotation Zrotation
		JOINT spine2
		{
			OFFSET 0.009796 0.349212 -0.004686
			CHANNELS 3 Xrotation Yrotation Zrotation
			JOINT spine3
			{
				OFFSET 0.005545 0.134239 0.076232
				CHANNELS 3 Xrotation Yrotation Zrotation
				JOINT neck
				{
					OFFSET -0.005369 0.569656 -0.136135
					CHANNELS 3 Xrotation Yrotation Zrotation
					JOINT head
					{
						OFFSET 0.009621 0.170484 0.137338
						CHANNELS 3 Xrotation Yrotation Zrotation
						End Site
						{
							OFFSET 0.000000 0.000000 0.000000
						}
					}
				}
				JOINT l_collar
				{
					OFFSET 0.205981 0.322192 -0.100872
					CHANNELS 3 Xrotation Yrotation Zrotation
					JOINT l_shoulder
					{
						OFFSET 0.233388 0.086823 -0.019950
						CHANNELS 3 Xrotation Yrotation Zrotation
						JOINT l_elbow
						{
							OFFSET 0.687295 -0.032736 -0.075278
							CHANNELS 3 Xrotation Yrotation Zrotation
							JOINT l_wrist
							{
								OFFSET 0.651109 0.024639 0.000120
								CHANNELS 3 Xrotation Yrotation Zrotation
								JOINT l_hand
								{
									OFFSET 0.217934 -0.026487 -0.036124
									CHANNELS 3 Xrotation Yrotation Zrotation
									End Site
									{
										OFFSET 0.000000 0.000000 0.000000
									}
								}
							}
						}
					}
				}
				JOINT r_collar
				{
					OFFSET -0.210726 0.316244 -0.114374
					CHANNELS 3 Xrotation Yrotation Zrotation
					JOINT r_shoulder
					{
						OFFSET -0.244017 0.089684 -0.026814
						CHANNELS 3 Xrotation Yrotation Zrotation
						JOINT r_elbow
						{
							OFFSET -0.672913 -0.035979 -0.055153
							CHANNELS 3 Xrotation Yrotation Zrotation
							JOINT r_wrist
							{
								OFFSET -0.670689 0.023586 -0.009661
								CHANNELS 3 Xrotation Yrotation Zrotation
								JOINT r_hand
								{
									OFFSET -0.219937 -0.019827 -0.028502
									CHANNELS 3 Xrotation Yrotation Zrotation
									End Site
									{
										OFFSET 0.000000 0.000000 0.000000
									}
								}
							}
						}
					}
				}
			}
		}
	}
}
MOTION
Frames: 12
Frame Time: 0.016667
0.000000 0.000000 0.000000 0.000000 0.000000 0.000000 -14.852356 -7.627156 -10.587752 23.883425 -9.813616 -7.371574 0.000000 0.000000 0.000000 0.000000 0.000000 0.000000 -19.818386 2.901540 -5.121939 74.545366 7.229019 1.018270 0.000000 0.000000 0.000000 0.000000 0.000000 0.000000 3.123305 1.141922 1.114174 0.011759 -1.632605 0.552087 -3.896271 3.144161 -2.813414 4.988101 11.575918 -0.287504 26.655234 19.128251 -4.223767 -0.875535 3.066389 -19.913706 12.990419 -10.578636 -61.511427 39.461904 -7.236878 21.334446 0.000000 0.000000 0.000000 0.000000 0.000000 0.000000 6.746012 1.941950 23.633627 12.156655 17.929959 60.701432 52.322261 6.650650 -24.824670 0.000000 0.000000 0.000000 0.000000 0.000000 0.000000 
0.000000 0.000000 0.000000 0.000000 0.000000 0.000000 -13.309116 -7.783790 -10.671323 24.263094 -11.579032 -6.798229 0.000000 0.000000 0.000000 0.000000 0.000000 0.000000 -21.879468 3.049450 -5.073958 72.879765 6.235815 1.439265 0.000000 0.000000 0.000000 0.000000 0.000000 0.000000 3.422864 0.388283 1.421458 -0.203623 -1.707174 0.570084 -3.878975 2.847838 -2.710403 5.276017 11.651959 -0.311223 26.957720 19.581520 -4.403142 -0.976565 2.863184 -20.093815 12.508820 -10.909952 -61.819766 38.835344 -8.538964 22.092626 0.000000 0.000000 0.000000 0.000000 0.000000 0.000000 6.752602 1.870352 23.509954 12.712104 17.744896 60.510030 53.728645 6.635800 -24.826520 0.000000 0.000000 0.000000 0.000000 0.000000 0.000000 
0.000000 0.000000 0.000000 0.000000 0.000000 0.000000 -11.969938 -7.966783 -10.644948 24.821449 -13.229619 -6.138223 0.000000 0.000000 0.000000 0.000000 0.000000 0.000000 -23.601935 3.158071 -5.043817 70.054094 5.492897 1.780740 0.000000 0.000000 0.000000 0.000000 0.000000 0.000000 3.617751 -0.284173 1.709307 -0.443443 -1.838184 0.645903 -3.875864 2.532540 -2.568781 5.548757 11.694334 -0.266936 27.179655 19.921784 -4.446301 -1.082273 2.666017 -20.252055 12.138793 -11.255399 -62.124267 38.543856 -9.905819 22.877993 0.000000 0.000000 0.000000 0.000000 0.000000 0.000000 6.789706 1.651023 23.337277 13.307506 17.327211 60.316443 55.059491 6.839836 -25.068650 0.000000 0.000000 0.000000 0.000000 0.000000 0.000000 
0.000000 0.000000 0.000000 0.000000 0.000000 0.000000 -10.788202 -8.142974 -10.511867 25.490683 -14.706573 -5.374038 0.000000 0.000000 0.000000 0.000000 0.000000 0.000000 -24.969303 3.310037 -4.965499 66.140234 5.060043 1.937403 0.000000 0.000000 0.000000 0.000000 0.000000 0.000000 3.720646 -0.842151 2.006238 -0.669228 -1.976656 0.752106 -3.913481 2.243291 -2.401813 5.748763 11.728437 -0.170641 27.318847 20.133414 -4.356629 -1.215261 2.463996 -20.441074 11.885980 -11.626057 -62.335291 38.571589 -11.292699 23.623604 0.000000 0.000000 0.000000 0.000000 0.000000 0.000000 6.850136 1.345895 23.170515 13.912517 16.693222 60.120704 56.132968 7.249324 -25.508290 0.000000 0.000000 0.000000 0.000000 0.000000 0.000000 
0.000000 0.000000 0.000000 0.000000 0.000000 0.000000 -9.740695 -8.291741 -10.288529 26.202913 -15.993576 -4.519603 0.000000 0.000000 0.000000 0.000000 0.000000 0.000000 -25.986326 3.544475 -4.811591 61.183579 4.949422 1.840429 0.000000 0.000000 0.000000 0.000000 0.000000 0.000000 3.732057 -1.269150 2.325167 -0.860254 -2.094604 0.858181 -4.002280 2.011657 -2.226664 5.830298 11.778044 -0.055778 27.399622 20.236741 -4.165458 -1.382041 2.254082 -20.688331 11.736500 -12.028292 -62.409699 38.826760 -12.641518 24.271100 0.000000 0.000000 0.000000 0.000000 0.000000 0.000000 6.926187 1.014625 23.048959 14.477231 15.916922 59.945058 56.826064 7.785720 -26.042239 0.000000 0.000000 0.000000 0.000000 0.000000 0.000000 
0.000000 0.000000 0.000000 0.000000 0.000000 0.000000 -8.825804 -8.411108 -10.008930 26.902372 -17.094665 -3.620076 0.000000 0.000000 0.000000 0.000000 0.000000 0.000000 -26.667885 3.860653 -4.617030 55.248917 5.174658 1.462717 0.000000 0.000000 0.000000 0.000000 0.000000 0.000000 3.636690 -1.561329 2.657059 -1.001776 -2.184359 0.936486 -4.139460 1.854470 -2.064474 5.786193 11.863784 0.032816 27.434551 20.267994 -3.913508 -1.583588 2.038748 -20.979705 11.675146 -12.462547 -62.371898 39.180798 -13.888836 24.794799 0.000000 0.000000 0.000000 0.000000 0.000000 0.000000 7.014737 0.698742 22.974102 14.947220 15.108298 59.846282 57.086394 8.325166 -26.548416 0.000000 0.000000 0.000000 0.000000 0.000000 0.000000 
0.000000 0.000000 0.000000 0.000000 0.000000 0.000000 -8.030883 -8.509970 -9.712339 27.543980 -18.025233 -2.737712 0.000000 0.000000 0.000000 0.000000 0.000000 0.000000 -27.018114 4.236850 -4.463692 48.481308 5.781187 0.833321 0.000000 0.000000 0.000000 0.000000 0.000000 0.000000 3.415606 -1.723104 2.979165 -1.074762 -2.249404 0.966192 -4.311757 1.776734 -1.936329 5.655656 12.001450 0.052218 27.403248 20.256606 -3.634160 -1.820958 1.823075 -21.265633 11.689928 -12.920926 -62.298923 39.520486 -14.977650 25.208342 0.000000 0.000000 0.000000 0.000000 0.000000 0.000000 7.117560 0.421112 22.909828 15.281501 14.375386 59.903497 56.926482 8.739266 -26.932848 0.000000 0.000000 0.000000 0.000000 0.000000 0.000000 
0.000000 0.000000 0.000000 0.000000 0.000000 0.000000 -7.295584 -8.595423 -9.423707 28.088037 -18.820157 -1.929533 0.000000 0.000000 0.000000 0.000000 0.000000 0.000000 -27.022776 4.645900 -4.443117 41.171401 6.816477 0.052470 0.000000 0.000000 0.000000 0.000000 0.000000 0.000000 3.066703 -1.765302 3.266691 -1.057708 -2.293032 0.937017 -4.493671 1.775375 -1.856244 5.508654 12.196037 -0.025200 27.261370 20.214085 -3.343881 -2.092176 1.610456 -21.484445 11.760504 -13.385164 -62.280370 39.784700 -15.866263 25.547787 0.000000 0.000000 0.000000 0.000000 0.000000 0.000000 7.237162 0.197264 22.802926 15.462846 13.785835 60.187111 56.410700 8.941426 -27.154226 0.000000 0.000000 0.000000 0.000000 0.000000 0.000000 
0.000000 0.000000 0.000000 0.000000 0.000000 0.000000 -6.505794 -8.666512 -9.142477 28.498756 -19.541304 -1.228585 0.000000 0.000000 0.000000 0.000000 0.000000 0.000000 -26.675797 5.054859 -4.619497 33.799894 8.243532 -0.718902 0.000000 0.000000 0.000000 0.000000 0.000000 0.000000 2.616343 -1.705439 3.496901 -0.935248 -2.308681 0.853411 -4.649468 1.841621 -1.826213 5.416689 12.435372 -0.202030 26.975366 20.136417 -3.047000 -2.384103 1.402727 -21.594082 11.847697 -13.827870 -62.370053 39.962786 -16.535532 25.840332 0.000000 0.000000 0.000000 0.000000 0.000000 0.000000 7.373627 0.046775 22.617360 15.499663 13.348271 60.711769 55.642841 8.921300 -27.213405 0.000000 0.000000 0.000000 0.000000 0.000000 0.000000 
0.000000 0.000000 0.000000 0.000000 0.000000 0.000000 -5.530346 -8.718056 -8.845954 28.749278 -20.262632 -0.638227 0.000000 0.000000 0.000000 0.000000 0.000000 0.000000 -26.024089 5.415347 -5.000609 27.010464 9.867311 -1.307802 0.000000 0.000000 0.000000 0.000000 0.000000 0.000000 2.109908 -1.566834 3.645953 -0.697151 -2.273564 0.737781 -4.750300 1.961802 -1.837279 5.431272 12.696782 -0.447720 26.555080 20.006397 -2.754347 -2.667541 1.209701 -21.595860 11.901374 -14.219472 -62.556769 40.057075 -16.990378 26.081248 0.000000 0.000000 0.000000 0.000000 0.000000 0.000000 7.527490 -0.003590 22.366498 15.423476 13.026812 61.397103 54.751951 8.742863 -27.121828 0.000000 0.000000 0.000000 0.000000 0.000000 0.000000 
0.000000 0.000000 0.000000 0.000000 0.000000 0.000000 -4.280370 -8.749403 -8.503366 28.831062 -21.036970 -0.138255 0.000000 0.000000 0.000000 0.000000 0.000000 0.000000 -25.188598 5.670321 -5.520075 21.479544 11.366986 -1.595173 0.000000 0.000000 0.000000 0.000000 0.000000 0.000000 1.589574 -1.375378 3.690222 -0.331047 -2.150640 0.627886 -4.797860 2.118488 -1.875648 5.574931 12.965643 -0.697505 26.065515 19.797308 -2.501933 -2.902203 1.061921 -21.536677 11.883750 -14.537291 -62.771938 40.041927 -17.252125 26.235543 0.000000 0.000000 0.000000 0.000000 0.000000 0.000000 7.704933 0.072148 22.122198 15.281566 12.781718 62.067860 53.877390 8.502038 -26.875013 0.000000 0.000000 0.000000 0.000000 0.000000 0.000000 
0.000000 0.000000 0.000000 0.000000 0.000000 0.000000 -2.751572 -8.771221 -8.097495 28.766657 -21.869309 0.305520 0.000000 0.000000 0.000000 0.000000 0.000000 0.000000 -24.336483 5.786446 -6.048942 17.734999 12.442539 -1.563759 0.000000 0.000000 0.000000 0.000000 0.000000 0.000000 1.079885 -1.156411 3.616608 0.173386 -1.903476 0.563578 -4.828980 2.293824 -1.930011 5.835675 13.246334 -0.869309 25.615001 19.491673 -2.349792 -3.052306 1.011247 -21.484823 11.787788 -14.769895 -62.930914 39.856633 -17.339387 26.258400 0.000000 0.000000 0.000000 0.000000 0.000000 0.000000 7.916031 0.285224 21.986550 15.119901 12.613902 62.515653 53.153524 8.261322 -26.447548 0.000000 0.000000 0.000000 0.000000 0.000000 0.000000 
